<?xml version="1.0" standalone="no"?>
<!DOCTYPE svg PUBLIC "-//W3C//DTD SVG 20010904//EN"
 "http://www.w3.org/TR/2001/REC-SVG-20010904/DTD/svg10.dtd">
<svg version="1.0" xmlns="http://www.w3.org/2000/svg"
 width="3464.000000pt" height="3464.000000pt" viewBox="0 0 3464.000000 3464.000000"
 preserveAspectRatio="xMidYMid meet">

<g transform="translate(0.000000,3464.000000) scale(0.100000,-0.100000)"
fill="#000000" stroke="none">
<path d="M5543 22778 c-9 -13 -28 -53 -57 -121 -9 -21 -16 -48 -16 -61 0 -13
-9 -31 -20 -41 -11 -10 -20 -24 -20 -32 0 -8 -9 -31 -20 -53 -11 -22 -20 -48
-20 -59 0 -34 -31 -115 -53 -139 -16 -17 -24 -42 -28 -90 -8 -82 -30 -143 -57
-155 -30 -14 -44 -80 -31 -157 17 -107 -4 -170 -56 -170 -15 0 -31 -10 -41
-25 -14 -21 -14 -32 -4 -77 7 -29 13 -83 14 -120 l3 -68 -33 -10 c-18 -6 -35
-18 -38 -26 -3 -8 1 -54 10 -102 22 -119 22 -116 -2 -126 -49 -22 -48 -50 2
-230 15 -57 12 -66 -25 -66 -15 0 -32 -5 -39 -12 -14 -14 -16 -99 -3 -114 5
-5 19 -40 32 -77 26 -79 20 -120 -19 -125 -32 -5 -56 -45 -48 -80 4 -15 10
-39 13 -54 3 -15 11 -33 19 -39 9 -7 14 -31 14 -61 0 -38 -5 -54 -23 -71 -44
-41 -42 -88 7 -159 20 -30 16 -97 -7 -136 -10 -15 11 -80 35 -107 9 -11 23
-44 29 -73 12 -48 11 -55 -9 -82 -23 -30 -29 -65 -13 -75 19 -11 51 -130 47
-175 -2 -25 -4 -57 -5 -72 -1 -23 -6 -28 -26 -28 -17 0 -29 -9 -39 -29 -14
-26 -14 -34 1 -77 9 -27 22 -56 29 -65 8 -8 14 -22 14 -30 1 -17 32 -107 47
-134 6 -11 14 -37 18 -58 6 -31 4 -42 -13 -60 -35 -37 -36 -70 -7 -149 14 -40
33 -85 41 -100 8 -14 14 -33 14 -41 0 -8 15 -33 34 -56 22 -26 36 -55 40 -85
9 -56 6 -61 -42 -77 -39 -12 -72 -36 -72 -52 0 -5 10 -17 23 -27 12 -10 37
-48 56 -84 18 -36 37 -69 42 -72 5 -3 21 -31 35 -62 14 -31 30 -65 35 -74 11
-21 2 -48 -16 -48 -25 0 -25 -18 0 -48 14 -16 25 -41 25 -55 0 -14 4 -28 9
-32 16 -10 53 -194 47 -231 -8 -41 -30 -44 -50 -6 -8 15 -23 35 -35 46 -11 10
-33 58 -48 108 -18 60 -36 99 -54 116 -49 48 -67 126 -76 325 -4 106 -7 118
-21 111 -37 -15 -60 -15 -75 0 -22 23 -37 80 -38 151 -1 111 -11 147 -44 165
-34 19 -48 60 -60 180 -10 96 -27 124 -71 117 -53 -9 -62 6 -74 126 -16 156
-23 169 -87 159 -23 -3 -34 0 -36 9 -2 8 -12 39 -21 69 -9 30 -18 73 -19 95
-4 53 -20 81 -56 93 -21 8 -32 19 -36 39 -3 15 -10 42 -16 58 -6 17 -17 53
-25 80 -23 83 -34 98 -68 91 -35 -7 -56 8 -56 40 0 36 -20 114 -41 162 l-19
43 -44 -6 c-44 -7 -44 -7 -51 27 -4 18 -13 44 -20 58 -7 14 -18 48 -24 75 -7
28 -20 59 -30 70 -10 11 -21 27 -23 35 -3 10 -18 15 -44 15 -31 0 -39 4 -42
20 -9 57 -55 184 -72 203 -15 16 -27 20 -49 16 -27 -6 -30 -3 -40 32 -6 22
-11 49 -11 60 0 12 -7 45 -16 73 -20 59 -56 91 -86 72 -32 -20 -47 -13 -58 28
-5 21 -16 41 -23 44 -7 3 -14 21 -15 40 -5 79 -64 155 -97 127 -24 -20 -54 -2
-61 35 -3 19 -12 39 -20 46 -8 6 -14 20 -14 30 0 25 -94 124 -110 114 -16 -10
-46 20 -70 70 -24 49 -82 100 -126 109 -22 5 -48 28 -89 76 -32 39 -64 70 -72
70 -7 0 -18 12 -23 26 -6 15 -23 38 -38 53 -15 14 -43 46 -61 71 -19 25 -39
50 -45 55 -6 6 -18 23 -26 39 -8 16 -27 42 -42 57 -16 15 -28 37 -28 49 0 28
-28 37 -45 14 -19 -25 -18 -44 0 -81 17 -34 39 -139 32 -151 -3 -4 -1 -43 4
-87 4 -44 13 -119 18 -166 5 -48 14 -95 19 -105 5 -11 17 -34 26 -52 16 -31
16 -35 0 -84 -16 -49 -16 -53 2 -87 10 -20 24 -44 32 -53 8 -10 15 -43 16 -80
2 -59 25 -118 46 -118 4 0 11 -12 14 -27 4 -16 14 -42 23 -59 15 -28 15 -33 1
-53 -23 -32 -5 -88 38 -124 19 -16 34 -33 34 -38 0 -5 9 -23 21 -38 16 -21 19
-33 11 -47 -15 -30 5 -79 48 -120 22 -21 40 -43 40 -49 0 -5 9 -21 20 -35 24
-30 26 -63 5 -80 -21 -17 -11 -47 30 -90 18 -19 47 -61 64 -93 25 -48 28 -63
20 -84 -15 -39 -3 -59 64 -107 35 -25 78 -63 96 -87 l34 -42 -18 -33 c-23 -43
-14 -78 25 -94 16 -7 32 -20 35 -31 3 -10 15 -21 25 -24 33 -11 62 -55 55 -86
-8 -36 7 -64 53 -93 20 -14 57 -42 82 -64 42 -37 44 -41 32 -67 -7 -15 -10
-35 -7 -45 5 -14 64 -60 124 -95 9 -5 34 -27 55 -47 29 -28 37 -43 33 -60 -9
-35 12 -62 83 -111 36 -24 71 -56 78 -70 7 -14 21 -29 32 -32 22 -7 27 -44 9
-62 -17 -17 13 -58 59 -82 68 -35 181 -130 182 -153 0 -4 -7 -14 -16 -22 -21
-22 -72 -20 -127 4 -32 14 -57 19 -84 15 -32 -5 -45 -1 -80 25 -24 18 -43 37
-43 44 0 14 -56 69 -87 85 -15 8 -30 8 -49 1 -23 -9 -34 -5 -83 27 -31 20 -80
58 -108 84 -50 44 -55 47 -83 36 -25 -9 -35 -8 -72 13 -24 13 -66 45 -95 70
-52 48 -88 66 -99 49 -11 -19 -37 -7 -87 39 -78 72 -96 82 -136 76 -30 -4 -46
1 -100 37 -60 39 -67 41 -117 35 -47 -5 -60 -2 -117 28 -43 22 -84 35 -120 38
-33 3 -77 15 -107 31 -29 15 -67 27 -86 27 -19 0 -48 7 -65 15 -17 9 -80 20
-146 26 -64 6 -124 14 -134 20 -10 5 -35 9 -56 9 -22 0 -43 4 -49 9 -5 4 -31
14 -59 21 -27 7 -55 17 -62 22 -6 5 -24 6 -40 3 -55 -13 -55 -12 -38 -45 8
-16 19 -30 23 -30 7 0 81 -71 171 -164 29 -30 65 -78 80 -106 19 -35 39 -57
68 -73 23 -12 52 -38 65 -57 13 -19 34 -40 46 -46 38 -19 81 -63 88 -89 4 -16
20 -33 43 -44 20 -11 50 -31 66 -45 17 -14 35 -26 40 -26 14 0 37 -39 30 -50
-3 -5 5 -16 17 -25 54 -37 97 -63 117 -70 11 -3 24 -17 27 -30 8 -34 24 -44
115 -76 99 -35 112 -44 104 -79 -7 -31 13 -53 65 -68 179 -52 185 -56 181
-104 -2 -18 74 -62 90 -52 5 3 23 -2 41 -10 18 -8 47 -18 63 -23 22 -7 31 -17
33 -35 3 -28 15 -36 71 -44 20 -3 64 -16 98 -30 34 -13 66 -24 72 -24 6 0 13
-11 17 -24 9 -35 46 -56 101 -57 26 0 77 -6 113 -13 62 -12 65 -13 65 -41 0
-42 33 -57 115 -50 83 7 250 -18 266 -39 6 -9 9 -27 7 -40 -4 -18 1 -25 19
-29 38 -11 216 -8 223 3 8 13 52 13 59 1 6 -9 -22 -71 -37 -82 -13 -9 -149 1
-174 13 -27 13 -160 5 -176 -11 -7 -7 -56 -11 -131 -11 -134 -1 -334 -28 -381
-52 -16 -9 -46 -19 -65 -23 -19 -4 -67 -22 -107 -41 -39 -19 -77 -34 -85 -34
-7 0 -24 -9 -38 -20 -14 -11 -31 -20 -37 -20 -7 0 -20 -11 -29 -25 -9 -13 -47
-44 -85 -67 -38 -23 -72 -51 -75 -61 -5 -17 -71 -57 -96 -57 -16 -1 -58 -35
-58 -48 0 -15 -33 -40 -62 -47 -20 -5 -97 -80 -128 -125 -3 -4 -48 -36 -100
-70 -124 -83 -132 -94 -77 -108 21 -6 48 -4 82 6 80 22 163 31 268 27 67 -2
109 1 131 10 17 8 56 13 86 13 36 0 71 7 102 21 37 17 52 19 67 11 29 -15 65
-12 128 10 36 13 61 16 72 11 10 -6 37 -5 66 0 28 5 60 7 72 4 14 -3 37 4 60
18 48 30 93 44 163 53 30 3 66 14 80 23 14 10 39 20 55 24 17 3 57 18 90 34
48 22 75 28 135 28 67 1 82 5 142 38 39 22 81 37 100 37 20 0 51 12 78 30 25
16 50 30 56 30 6 0 33 12 59 26 39 20 53 23 71 15 26 -11 61 -3 120 27 82 41
131 61 179 72 28 6 60 14 73 17 35 8 24 -28 -15 -50 -194 -113 -229 -137 -249
-175 -19 -36 -111 -122 -130 -122 -6 0 -26 -13 -45 -29 -21 -19 -50 -32 -78
-36 -58 -9 -97 -29 -103 -53 -3 -11 -31 -32 -64 -48 -53 -27 -59 -33 -65 -67
-3 -20 -8 -39 -10 -41 -2 -2 -33 -27 -68 -55 -80 -64 -111 -105 -111 -148 0
-18 -13 -55 -31 -85 -17 -29 -32 -62 -34 -73 -1 -11 -7 -30 -14 -43 -10 -20
-9 -23 13 -33 22 -11 30 -7 73 28 55 45 126 86 180 103 21 7 46 19 55 27 10
10 28 13 44 10 28 -5 106 23 118 42 4 6 19 11 34 11 15 0 50 11 77 25 28 13
56 25 64 25 7 0 34 18 60 39 26 22 60 43 77 47 32 7 64 40 93 94 11 19 32 43
48 52 16 9 38 32 48 51 22 41 62 67 102 67 42 0 50 -9 78 -85 13 -38 29 -73
34 -78 14 -14 51 29 51 61 2 214 23 329 78 437 51 97 64 105 88 53 8 -18 27
-54 43 -79 15 -25 33 -61 40 -80 6 -20 25 -54 42 -77 37 -51 67 -104 113 -198
33 -68 48 -84 84 -84 9 0 33 -18 52 -40 79 -91 99 -110 119 -110 12 0 48 -26
83 -60 50 -47 70 -60 95 -60 25 0 38 -8 63 -40 17 -22 36 -40 41 -40 28 0 169
-133 220 -206 16 -23 35 -44 43 -47 24 -9 31 55 18 149 -7 44 -12 92 -12 107
0 31 -14 60 -48 99 -17 18 -22 33 -17 47 5 15 -6 40 -39 89 -25 37 -46 72 -46
76 0 8 -75 114 -107 152 -10 11 -35 33 -55 48 -39 29 -44 41 -28 66 8 12 17 7
55 -30 25 -24 45 -50 45 -57 0 -6 16 -24 35 -39 l36 -27 23 22 23 22 68 -52
c58 -44 71 -50 87 -40 19 12 58 0 58 -18 0 -5 25 -26 56 -47 48 -33 58 -36 75
-26 25 16 47 9 113 -33 67 -42 82 -47 96 -29 15 18 46 18 57 1 4 -7 36 -28 71
-46 66 -34 114 -36 126 -5 8 21 26 18 117 -21 94 -40 106 -41 130 -19 14 13
24 13 61 4 23 -7 50 -17 58 -23 41 -32 69 -39 162 -43 54 -1 104 -6 110 -10 7
-4 37 -9 69 -10 31 -2 94 -14 140 -28 121 -34 138 -21 67 52 -22 24 -51 50
-64 59 -13 8 -24 21 -24 27 0 7 -11 23 -25 36 -14 13 -25 28 -25 34 0 6 -27
26 -60 44 -70 39 -73 43 -61 74 6 16 5 29 -3 39 -13 18 -77 49 -101 49 -9 0
-22 15 -30 33 -14 32 -106 97 -138 97 -9 0 -23 13 -33 28 -19 33 -55 54 -136
78 -34 10 -60 24 -63 34 -6 20 -61 44 -160 70 -83 22 -185 66 -185 80 0 19
-50 42 -129 60 -44 10 -87 25 -96 34 -9 9 -19 16 -23 17 -4 0 -43 4 -87 9 -44
4 -116 15 -160 24 -44 9 -94 16 -111 16 -35 0 -54 16 -54 45 0 12 -11 32 -25
45 -28 26 -31 68 -5 61 59 -15 87 -17 183 -13 104 4 107 5 107 28 0 31 37 57
62 43 10 -6 29 -7 41 -3 12 4 61 6 110 5 86 -2 87 -1 87 22 0 14 6 29 13 35
16 13 100 17 177 7 71 -9 106 5 115 44 6 29 28 46 46 35 6 -3 50 -8 98 -11
107 -7 135 4 126 47 -9 41 15 50 137 50 116 0 135 8 140 55 3 26 7 30 33 31
17 1 43 6 58 13 16 6 49 11 75 11 57 0 70 8 68 38 -1 19 8 26 54 42 30 11 65
19 78 20 34 0 79 26 85 49 3 11 17 22 36 26 18 4 44 13 58 20 15 8 30 12 35 9
5 -3 26 -3 48 1 30 5 44 15 66 46 14 21 32 39 39 39 6 0 22 8 34 19 11 10 40
21 62 25 47 7 83 24 118 55 13 12 41 26 62 31 21 6 51 21 66 34 25 20 54 37
115 67 10 5 23 9 30 9 7 0 28 13 47 29 l34 28 -24 15 c-23 15 -211 41 -376 53
-39 3 -78 8 -87 11 -9 4 -54 7 -99 9 -45 1 -104 7 -130 14 -37 10 -63 10 -110
2 -48 -8 -65 -8 -81 3 -50 32 -87 28 -140 -14 -13 -11 -39 -14 -95 -13 -76 3
-171 -19 -171 -38 0 -15 -46 -10 -60 6 -21 25 -54 17 -124 -30 -71 -47 -99
-54 -130 -30 -30 23 -52 18 -119 -26 -50 -32 -68 -39 -95 -35 -39 6 -82 -8
-142 -46 -38 -24 -51 -28 -87 -22 -44 6 -50 3 -168 -87 -33 -25 -45 -29 -76
-24 -38 7 -83 -10 -124 -45 -46 -39 -117 -72 -144 -67 -30 6 -43 -1 -134 -70
-31 -24 -63 -43 -71 -43 -20 0 -71 -45 -96 -85 -24 -40 -111 -105 -140 -105
-11 0 -63 -41 -120 -95 -55 -52 -107 -95 -114 -95 -8 0 -38 -16 -67 -35 -29
-20 -75 -45 -103 -57 -28 -12 -55 -25 -60 -30 -13 -11 -53 -10 -61 2 -20 32
109 213 190 266 14 9 32 32 40 50 8 19 19 34 24 34 6 0 11 11 11 25 0 31 54
104 100 136 19 13 63 38 98 56 76 40 107 67 99 88 -10 26 26 80 56 83 18 2 32
13 42 31 9 18 30 34 59 45 25 10 55 30 66 45 17 25 18 32 7 61 -10 27 -9 34 1
37 7 3 35 22 62 44 27 21 52 39 56 39 4 0 26 17 49 38 24 20 55 45 69 55 27
19 34 45 15 64 -13 13 -4 63 11 63 12 0 105 67 142 102 23 21 28 35 28 71 0
38 5 48 31 68 44 35 122 116 137 146 10 18 11 28 3 36 -31 31 1 67 110 126 48
27 92 79 83 100 -15 37 -15 59 1 72 9 8 28 26 42 42 15 15 32 27 39 27 22 0
45 56 42 102 -2 34 1 44 18 53 31 15 85 72 106 110 14 28 15 39 6 66 -12 35
-17 28 150 181 22 21 31 36 26 47 -3 9 -8 23 -11 32 -6 21 63 89 89 89 24 0
55 67 39 83 -17 17 -13 55 7 75 9 10 26 29 38 43 11 13 31 31 42 39 29 19 36
44 20 70 -12 20 -9 25 35 63 52 46 69 87 54 130 -8 23 -6 32 11 50 21 22 55
112 67 177 4 19 20 52 36 72 16 20 29 49 29 63 0 15 15 50 33 78 19 29 43 71
54 94 l20 41 -34 -4 c-18 -2 -42 -13 -52 -23 -10 -10 -61 -40 -112 -66 -52
-26 -107 -60 -124 -75 -16 -15 -64 -48 -105 -73 -41 -25 -91 -60 -110 -77 -43
-39 -87 -63 -100 -55 -11 7 -76 -39 -103 -72 -27 -33 -184 -153 -201 -153 -20
0 -70 -52 -111 -115 -40 -64 -46 -68 -78 -56 -30 12 -37 5 -96 -96 -43 -72
-71 -94 -95 -74 -23 19 -50 -14 -111 -143 -33 -69 -65 -126 -71 -126 -6 0 -17
7 -24 15 -7 8 -16 15 -21 15 -14 0 -41 -48 -50 -88 -22 -107 -60 -167 -100
-157 -27 6 -38 0 -56 -30 -24 -38 -53 -108 -53 -124 0 -22 -19 -41 -42 -41
-22 0 -45 -43 -59 -112 -12 -55 -32 -88 -55 -88 -33 0 -105 -175 -108 -258 -1
-59 -3 -61 -48 -48 -41 12 -70 -24 -76 -91 -3 -29 -8 -56 -13 -59 -5 -3 -9
-26 -9 -52 0 -26 -4 -54 -10 -62 -8 -12 -11 -12 -28 3 -25 23 -42 22 -42 -2 0
-11 -4 -23 -10 -26 -5 -3 -10 -30 -10 -58 0 -67 -9 -79 -51 -75 -27 2 -35 8
-37 26 -2 13 3 31 12 41 9 10 19 31 22 49 3 17 15 39 25 48 11 9 19 29 19 43
0 13 10 36 23 50 27 31 58 96 50 105 -4 3 -21 6 -39 6 -66 0 -76 17 -53 89 16
50 61 153 75 171 10 13 21 49 27 90 1 10 -9 16 -33 20 -43 6 -52 37 -21 76 14
18 21 41 21 70 0 24 7 69 15 101 20 78 20 103 -4 103 -33 0 -41 21 -31 87 4
33 12 69 18 79 5 11 15 47 22 82 12 58 12 64 -6 77 -17 12 -18 17 -6 47 20 48
31 98 32 135 0 24 -7 37 -29 52 -26 19 -28 25 -24 68 3 27 14 82 24 123 21 81
15 130 -15 130 -26 0 -39 37 -26 75 6 19 9 44 5 55 -4 13 1 33 14 54 28 45 26
70 -6 94 l-26 19 12 64 c20 100 19 135 -7 156 -19 15 -23 29 -24 84 -1 37 3
73 8 80 20 26 24 64 8 94 -11 22 -14 54 -12 126 3 97 3 98 -27 129 -29 31 -30
34 -30 133 -1 88 -4 106 -22 132 -15 22 -22 51 -26 108 -3 43 -10 84 -17 91
-6 8 -17 39 -25 70 -8 31 -21 67 -29 79 -8 12 -18 42 -21 67 -4 24 -10 51 -15
60 -7 14 -15 54 -40 205 -19 118 -41 158 -67 123z m345 -4150 c20 -20 14 -63
-13 -88 -22 -21 -25 -29 -19 -72 5 -36 3 -53 -8 -66 -20 -23 -48 -102 -48
-134 0 -14 -7 -42 -15 -62 -13 -31 -18 -35 -35 -26 -36 19 -38 12 -32 -100 3
-73 1 -119 -6 -133 -7 -12 -16 -50 -21 -84 -7 -44 -19 -74 -39 -100 -16 -21
-35 -58 -42 -83 -24 -88 -48 -135 -68 -138 -27 -4 -34 47 -17 113 40 154 47
203 35 237 -13 36 -4 64 57 183 14 28 34 67 44 88 12 23 27 37 38 37 15 0 20
11 26 56 4 31 5 57 3 58 -2 1 -16 7 -31 14 -43 18 -46 41 -9 72 18 15 32 32
32 40 0 7 11 27 24 44 13 17 26 41 30 53 9 28 75 103 91 103 6 0 16 -5 23 -12z
m-1538 -370 c37 -27 40 -58 7 -58 -24 0 -77 47 -77 68 0 19 38 14 70 -10z
m212 -95 c29 -13 38 -22 36 -38 -2 -15 -12 -21 -39 -23 -30 -3 -41 2 -63 28
-42 51 -10 66 66 33z m225 -210 c21 -10 52 -30 68 -46 17 -15 39 -30 50 -33
53 -16 87 -86 48 -97 -81 -22 -86 -21 -150 47 -58 61 -83 112 -68 136 8 13 6
13 52 -7z m258 -262 c22 -22 66 -64 98 -95 52 -51 74 -96 47 -96 -43 0 -230
171 -230 210 0 33 41 24 85 -19z m-157 -289 c4 -29 -18 -33 -163 -30 -105 3
-120 5 -123 21 -5 26 24 32 160 31 118 0 123 -1 126 -22z m1277 -13 c22 -5 56
-13 75 -18 42 -9 80 -28 80 -40 0 -23 -191 -23 -206 0 -3 5 -13 9 -23 9 -10 0
-26 9 -37 21 -18 20 -18 21 1 35 12 9 30 13 45 9 14 -3 43 -10 65 -16z"/>
<path d="M25370 19228 c-553 -1199 -1008 -2189 -1012 -2199 -7 -18 6 -19 355
-19 l363 0 61 138 c34 75 101 224 148 330 l87 192 1023 0 1022 0 149 -330 148
-330 363 0 362 0 -12 28 c-7 16 -462 1006 -1012 2200 -842 1829 -1003 2171
-1020 2172 -17 0 -176 -340 -1025 -2182z m1413 -148 l375 -835 -378 -3 c-208
-1 -552 -1 -764 0 l-385 3 370 820 c204 451 375 831 380 844 6 14 13 21 19 15
4 -5 177 -385 383 -844z"/>
<path d="M28940 19205 l0 -2195 335 0 335 0 2 1405 3 1404 1379 -1439 c758
-792 1384 -1440 1392 -1440 12 0 14 320 14 2195 l0 2195 -335 0 -335 0 -2
-1407 -3 -1407 -1379 1442 c-759 793 -1385 1442 -1393 1442 -11 0 -13 -376
-13 -2195z"/>
<path d="M13604 19958 c6 -1201 6 -1374 -8 -1458 -37 -232 -148 -443 -317
-605 -125 -120 -252 -197 -410 -249 -114 -38 -206 -49 -374 -43 -124 4 -166 9
-240 31 -115 34 -200 74 -282 131 -36 25 -67 45 -68 43 -20 -20 -333 -582
-329 -589 16 -26 230 -139 351 -185 95 -36 281 -81 388 -93 115 -14 346 -14
455 -1 382 47 728 216 1000 489 150 151 238 272 325 446 98 198 149 370 175
595 8 68 9 492 4 1473 l-7 1377 -335 0 -335 0 7 -1362z"/>
<path d="M15080 19165 l0 -2155 1285 0 1285 0 0 335 0 335 -950 0 -950 0 0
600 0 600 820 0 820 0 0 335 0 335 -820 0 -820 0 0 555 0 555 950 0 950 0 0
330 0 330 -1285 0 -1285 0 0 -2155z"/>
<path d="M18350 19165 l0 -2155 1285 0 1285 0 0 335 0 335 -950 0 -950 0 0
600 0 600 820 0 820 0 0 335 0 335 -820 0 -820 0 0 555 0 555 950 0 950 0 0
330 0 330 -1285 0 -1285 0 0 -2155z"/>
<path d="M21280 21313 c0 -4 444 -994 987 -2200 841 -1867 991 -2193 1008
-2193 17 0 168 327 1008 2186 544 1203 991 2193 994 2200 4 12 -53 14 -353 14
l-359 0 -644 -1460 c-355 -803 -648 -1457 -651 -1453 -4 5 -294 662 -645 1461
l-638 1452 -354 0 c-194 0 -353 -3 -353 -7z"/>
<path d="M33240 19165 l0 -2155 335 0 335 0 0 2155 0 2155 -335 0 -335 0 0
-2155z"/>
</g>
</svg>
